<mxfile host="app.diagrams.net" modified="2024-02-28T07:39:47.958Z" agent="Mozilla/5.0 (Windows NT 10.0; Win64; x64) AppleWebKit/537.36 (KHTML, like Gecko) Chrome/122.0.0.0 Safari/537.36" etag="8JGJwUbJHMdvb858NcTN" version="23.1.7" type="github">
  <diagram name="第 1 页" id="okALa9N-0yILxG5EDk-l">
    <mxGraphModel dx="936" dy="520" grid="1" gridSize="10" guides="1" tooltips="1" connect="1" arrows="1" fold="1" page="1" pageScale="1" pageWidth="827" pageHeight="1169" background="none" math="0" shadow="0">
      <root>
        <mxCell id="0" />
        <mxCell id="1" parent="0" />
        <mxCell id="tOPaUaUS3X3GN9bbYH5N-13" style="edgeStyle=orthogonalEdgeStyle;rounded=1;orthogonalLoop=1;jettySize=auto;html=1;exitX=0.75;exitY=1;exitDx=0;exitDy=0;entryX=0.75;entryY=0;entryDx=0;entryDy=0;shape=flexArrow;" edge="1" parent="1" source="tOPaUaUS3X3GN9bbYH5N-1" target="tOPaUaUS3X3GN9bbYH5N-10">
          <mxGeometry relative="1" as="geometry" />
        </mxCell>
        <mxCell id="tOPaUaUS3X3GN9bbYH5N-19" style="edgeStyle=orthogonalEdgeStyle;rounded=1;orthogonalLoop=1;jettySize=auto;html=1;shape=flexArrow;exitX=0.236;exitY=1.001;exitDx=0;exitDy=0;exitPerimeter=0;" edge="1" parent="1" source="tOPaUaUS3X3GN9bbYH5N-1" target="tOPaUaUS3X3GN9bbYH5N-14">
          <mxGeometry relative="1" as="geometry" />
        </mxCell>
        <mxCell id="tOPaUaUS3X3GN9bbYH5N-1" value="会员小程序" style="rounded=1;whiteSpace=wrap;html=1;labelPosition=center;verticalLabelPosition=top;align=center;verticalAlign=bottom;" vertex="1" parent="1">
          <mxGeometry x="110" y="250" width="510" height="290" as="geometry" />
        </mxCell>
        <mxCell id="tOPaUaUS3X3GN9bbYH5N-2" value="会员模块" style="rounded=1;whiteSpace=wrap;html=1;labelPosition=center;verticalLabelPosition=top;align=center;verticalAlign=bottom;" vertex="1" parent="1">
          <mxGeometry x="140" y="330" width="190" height="140" as="geometry" />
        </mxCell>
        <mxCell id="tOPaUaUS3X3GN9bbYH5N-3" value="订单模块" style="rounded=1;whiteSpace=wrap;html=1;labelPosition=center;verticalLabelPosition=top;align=center;verticalAlign=bottom;" vertex="1" parent="1">
          <mxGeometry x="400" y="330" width="190" height="140" as="geometry" />
        </mxCell>
        <mxCell id="tOPaUaUS3X3GN9bbYH5N-4" value="会员管理" style="rounded=1;whiteSpace=wrap;html=1;" vertex="1" parent="1">
          <mxGeometry x="150" y="350" width="70" height="40" as="geometry" />
        </mxCell>
        <mxCell id="tOPaUaUS3X3GN9bbYH5N-6" value="登录注册" style="rounded=1;whiteSpace=wrap;html=1;" vertex="1" parent="1">
          <mxGeometry x="250" y="350" width="70" height="40" as="geometry" />
        </mxCell>
        <mxCell id="tOPaUaUS3X3GN9bbYH5N-8" value="订单管理" style="rounded=1;whiteSpace=wrap;html=1;" vertex="1" parent="1">
          <mxGeometry x="410" y="350" width="70" height="40" as="geometry" />
        </mxCell>
        <mxCell id="tOPaUaUS3X3GN9bbYH5N-9" value="支付功能" style="rounded=1;whiteSpace=wrap;html=1;" vertex="1" parent="1">
          <mxGeometry x="510" y="350" width="70" height="40" as="geometry" />
        </mxCell>
        <mxCell id="tOPaUaUS3X3GN9bbYH5N-10" value="MySQL" style="rounded=1;whiteSpace=wrap;html=1;" vertex="1" parent="1">
          <mxGeometry x="110" y="690" width="510" height="90" as="geometry" />
        </mxCell>
        <mxCell id="tOPaUaUS3X3GN9bbYH5N-14" value="Redis" style="rounded=1;whiteSpace=wrap;html=1;" vertex="1" parent="1">
          <mxGeometry x="110" y="585" width="240" height="60" as="geometry" />
        </mxCell>
        <mxCell id="tOPaUaUS3X3GN9bbYH5N-18" style="edgeStyle=orthogonalEdgeStyle;rounded=1;orthogonalLoop=1;jettySize=auto;html=1;entryX=0.235;entryY=0.032;entryDx=0;entryDy=0;entryPerimeter=0;shape=flexArrow;" edge="1" parent="1" source="tOPaUaUS3X3GN9bbYH5N-14" target="tOPaUaUS3X3GN9bbYH5N-10">
          <mxGeometry relative="1" as="geometry" />
        </mxCell>
      </root>
    </mxGraphModel>
  </diagram>
</mxfile>
